# xmcd
#
# Track frame offsets: 
#        150
#        13021
#        26970
#        38409
#        52325
#        64515
#        77930
#        90289
#        101631
#        113925
#        127726
#        142583
#        156858
#        169342
#        181729
#        194425
#        208553
#        222550
#
# Disc length: 3147 seconds
#
# Revision: 2
# Processed by: cddbd v1.5.2PL0 Copyright (c) Steve Scherf et al.
# Submitted via: ExactAudioCopy v0.95b2
#
DISCID=f30c4912
DTITLE=Blind Boy Fuller - The Essential - Disc 1
DYEAR=2001
DGENRE=Blues
TTITLE0=Untrue Blues
TTITLE1=Rag Mama Rag (Take 1)
TTITLE2=Jivin' Woman Blues
TTITLE3=I'm a Rattlesnakin Daddy
TTITLE4=Pistol Slapper Blues
TTITLE5=Mama Let Me Lay It On You
TTITLE6=Meat Shakin' Woman
TTITLE7=Jitterbug Rag
TTITLE8=Big Leg Woman Gets My Pay
TTITLE9=Ain't It a Crying Shame?
TTITLE10=Log Cabin Blues (Take 2)
TTITLE11=Weepin'  Willow
TTITLE12=Too Many Women Blues
TTITLE13=What's That Smells Like Fish?
TTITLE14=Sweet Honey Hole
TTITLE15=Homesick and Lonesome Blues
TTITLE16=Truckin' My Blues Away
TTITLE17=Walking and Looking Blues
EXTD=
EXTT0=
EXTT1=
EXTT2=
EXTT3=
EXTT4=
EXTT5=
EXTT6=
EXTT7=
EXTT8=
EXTT9=
EXTT10=
EXTT11=
EXTT12=
EXTT13=
EXTT14=
EXTT15=
EXTT16=
EXTT17=
PLAYORDER=
